# xmcd
#
# Track frame offsets:
#	150
#	13697
#	29377
#	46085
#	59645
#	74077
#	89392
#	103315
#	118035
#	132010
#	146337
#	160415
#
# Disc length: 2318 seconds
#
# Revision: 2
# Processed by: cddbd v1.4PL0 Copyright (c) Steve Scherf et al.
# Submitted via: audiograbber 1.80
#
DISCID=ac090c0c
DTITLE=Limite - Por Puro Amor
DYEAR=1900
DGENRE=
TTITLE0=Esta vez
TTITLE1=No es tan facil
TTITLE2=Con la misma piedra
TTITLE3=Yo sin tu amor
TTITLE4=Prestame esta noche
TTITLE5=Si quieres saber
TTITLE6=Vete
TTITLE7=Quiero
TTITLE8=Contigo soy feliz
TTITLE9=Te aprovechas
TTITLE10=Dame valor
TTITLE11=Solo tu
EXTD=
EXTT0=
EXTT1=
EXTT2=
EXTT3=
EXTT4=
EXTT5=
EXTT6=
EXTT7=
EXTT8=
EXTT9=
EXTT10=
EXTT11=
PLAYORDER=
